<svg xmlns="http://www.w3.org/2000/svg" width="1506" height="337" fill="none"><g fill="#fff" clip-path="url(#a)"><path d="M481.5 123.9h55.3v207.3h-52.7l-1.1-22.9c-10.8 14.7-33 28.3-64.3 28.3-47.9 0-81.6-31.3-81.6-81.2V123.9h55.3v117.3c0 28.7 18.6 44.1 42.8 44.1s46.4-15.3 46.4-44.1V123.9zM840.6 119.6c-30.9 0-57.2 14.7-71.9 36.7-12.1-23.5-38-36.7-69.5-36.7s-52.9 13.8-63.5 28.3l-1.1-24h-52.7v207.3h55.5v-116c0-28.7 21.4-44.3 45.3-44.3s41.2 15.5 41.2 44.3v116h55.5V213.9c0-28.1 21.8-43 45.6-43s41.5 15.5 41.5 44.3v116H922V201c0-50.5-33.9-81.4-81.4-81.4M1037.6 294.3c-21.2 0-34.5-9.9-34.5-25.5s17.1-26.3 42.3-26.3 29.6 3.5 39.7 8c0 26.1-20.9 43.8-47.5 43.8m4.3-174.7c-43.6 0-74.3 25-88.3 43.2l31.7 31.7c13.6-14.5 30.9-26.1 54.8-26.1s44.9 16.6 44.9 39.5v4.8c-13.4-4.8-29.4-7.1-43.6-7.1-55.1 0-90.9 27.2-90.9 66.3s31.3 63.7 78.4 63.7 47.5-10.6 58.7-27.4v23.1h52.7V203.7c0-51.8-37.8-84-98.5-84M1373.2 123.9h-63.5l-44.9 63.9-45.2-63.9h-63.7l75.6 101.5-76.2 105.8h62.2l47.3-68.9 47.7 68.9h62.4L1298 225.4zM1436.9 62.2h-7.1V43.7c1.6-.4 4.3-.8 8.3-.8 9.4 0 13.8 3.9 13.8 9.8s-6.7 9.4-15 9.4m17.7 4.8v-.8c7.9-2.4 13.4-7.9 13.4-15s-2.8-11.4-6.3-14.2c-4.7-2.8-10.2-4.7-22.4-4.7s-18.9.8-24.8 2v64.5h15v-26h7.1c8.3 0 12.2 3.1 13.4 10.2 2 7.5 3.1 13.4 5.1 15.7h16.1c-1.6-2.4-2.8-6.3-4.7-16.1-2-8.7-5.5-13.4-11.8-15.7"/><path d="M1440 116.5c-29.1 0-50.4-22.8-50.4-51.5s21.2-51.5 50-51.5 49.6 23.2 49.6 51.9-20.9 51.2-49.2 51.2M1439.6.4c-37 0-66.5 28.7-66.5 64.5s29.5 65.3 66.5 65.3 66.1-28.7 66.1-65.3S1477 .4 1439.6.4M234.9 331.1h-69.8v-.2C72.2 330.1.2 259 .2 165.7S71.1.4 165 .4h.5c22.6 0 44.5 4.5 64.8 13.1l-25.2 54.1c-12.8-5.6-26.2-8-39.6-8.1h-.5c-58.4 0-99.3 44-99.3 106.1s42 105.6 99.8 106.1h69.4v-77.9l-43.8-11.3v-59.3l102.5 24.9-.7 150.8-58 31.9z"/></g><defs><clipPath id="a"><path fill="#fff" d="M0 0h1506v337H0z"/></clipPath></defs></svg>