<?xml version="1.0" encoding="UTF-8"?>
<svg id="Logo" xmlns="http://www.w3.org/2000/svg" version="1.1" viewBox="0 0 609.4 382.7">
  <!-- Generator: Adobe Illustrator 29.1.0, SVG Export Plug-In . SVG Version: 2.1.0 Build 142)  -->
  <defs>
    <style>
      .st0 {
        fill: #fff;
      }
    </style>
  </defs>
  <path class="st0" d="M68.7,85h14.6v184.6h-16.4V101.2H0L201.6.3l7.3,14.5L68.7,85ZM540.7,84.7h-14.6s0,296.4,0,296.4h10s0-280.2,0-280.2h73.4S407.8,0,407.8,0l-7.3,14.5,140.2,70.2ZM141.1,291.7c-9.6,23.8-20.3,47.6-29.2,71.6-8.9-24.1-19.5-47.9-29.2-71.6h-15.8v89.4h11.1v-42.3c.3-11.7-1-23.5-.6-35.2,4.3,11.6,8.9,23,13.8,34.4,6.1,14.4,12.1,28.8,18.2,43.2h5c6.1-14.4,12.2-28.8,18.2-43.2,4.9-11.3,9.5-22.8,13.8-34.4.3,11.7-.9,23.5-.6,35.2v42.3s11,0,11,0v-89.4h-15.8ZM215.1,338v43.1h-8.7l-1.2-6.9c-4.9,5.6-10.9,8.5-19.9,8.5-6.5,0-11-1.5-15-5.2-8.4-8.3-7.9-24.5,2.3-31.2,9.5-6.2,21.7-4.5,32-1.3,0-4.6.8-9.8-2.2-13.7-3.4-4.7-9.5-6.4-15.1-6.2-5.9-.2-11.7,1.5-17.2,3.3v-8.7c9.1-3.6,19.4-4.8,28.9-2.2,5.2,1.4,10.1,4.5,13,9.1,2.3,3.3,3,7.5,3,11.4ZM204.7,353.3c-7.7-1.7-16.1-3.8-23.6-.6-7,3.1-7.5,13.6-2.3,18.5,4,3.3,9.7,3.5,14.5,2,4.2-1.4,8.2-3.8,11.3-6.9.5-4.3,0-8.7.2-13ZM457.1,338v43.1h-8.7l-1.2-6.9c-4.9,5.6-10.9,8.5-19.9,8.5-6.5,0-11-1.5-15-5.2-8.4-8.3-7.9-24.5,2.3-31.2,9.5-6.2,21.7-4.5,32-1.3,0-4.6.8-9.8-2.2-13.7-3.4-4.7-9.5-6.4-15.1-6.2-5.9-.2-11.7,1.5-17.2,3.3v-8.7c9.1-3.6,19.4-4.8,28.9-2.2,5.2,1.4,10.1,4.5,13,9.1,2.3,3.3,3,7.5,3,11.4ZM446.7,353.3c-7.7-1.7-16.1-3.8-23.6-.6-7,3.1-7.5,13.6-2.3,18.5,4,3.3,9.7,3.5,14.5,2,4.2-1.4,8.2-3.8,11.3-6.9.5-4.3,0-8.7.2-13ZM517.1,338v43.1h-8.7l-1.2-6.9c-4.9,5.6-10.9,8.5-19.9,8.5-6.5,0-11-1.5-15-5.2-8.4-8.3-7.9-24.5,2.3-31.2,9.5-6.2,21.7-4.5,32-1.3,0-4.6.8-9.8-2.2-13.7-3.4-4.7-9.5-6.4-15.1-6.2-5.9-.2-11.7,1.5-17.2,3.3v-8.7c9.1-3.6,19.4-4.8,28.9-2.2,5.2,1.4,10.1,4.5,13,9.1,2.3,3.3,3,7.5,3,11.4ZM506.7,353.3c-7.7-1.7-16.1-3.8-23.6-.6-7,3.1-7.5,13.6-2.3,18.5,4,3.3,9.7,3.5,14.5,2,4.2-1.4,8.2-3.8,11.3-6.9.5-4.3,0-8.7.2-13ZM330.4,316.7c-6.1,1.2-11.3,5.2-15.1,10l-1.9-8.8h-8.2v63.2h10.5v-44.9c3.3-5.4,8.7-9.9,15-11,3.5-.4,7.3-.4,10.3,1.7,3.9,2.5,5.5,7.4,5.4,11.8v42.4h10.5v-43.8c0-1,.6-1.9,1.1-2.6,4-5.2,9.8-9.6,16.6-9.6,3.8-.3,7.9,1,10.4,4,2.4,3.1,3,7.2,3.1,11v41h10.1v-44.5c.2-7.5-3.8-15.4-10.9-18.4-7.4-3.3-16.5-2.8-23.4,1.6-3.6,2.4-6.5,5.6-9.2,8.9-1.3-2.2-2.5-4.5-4.3-6.4-4.9-5.7-13.2-7.3-20.3-5.6h0ZM278.9,381.2l-24-32.3,23.2-31h-11.4s-17,24-17,24l-17.9-24h-11.4s23.2,31,23.2,31l-24,32.3h11.2c0,0,18.1-25.2,18.1-25.2l18.8,25.1h11.2ZM295.4,317.9h-10.4v63.3h10.4v-63.3ZM295.4,291.5h-10.4v11.4h10.4v-11.4ZM280.2,108.9v159.6h20.1V108.9h-20.1ZM336.5,108.9v159.6h19.5c0-30,0-59.9,0-89.9.1-10.8-.6-21.5-.9-32.3-.2-3.5-.8-7-.5-10.6,2,2.3,3.4,4.9,5,7.4,12,18.6,24.6,36.7,37.5,54.8,16.6,23.5,33.1,47.1,49.7,70.6h19.5s0-159.6,0-159.6h-19.6s0,94.9,0,94.9c0,4.2,0,8.4.5,12.5.3,5.2,0,10.4.4,15.5.4,3.1.6,6.3.5,9.5-.9-1-1.9-2-2.6-3.2-14.3-22.3-29.5-44-44.8-65.7-14.9-21.2-29.9-42.4-44.8-63.6h-19.5ZM224.7,108.9v101.2c-.5,8.8-1.7,17.8-6.2,25.5-4.3,7.6-11.5,13.6-19.9,16.2-5.4,1.7-11.1,2.5-16.8,2.4-5.7,0-11.4-.7-16.8-2.4-8.4-2.6-15.6-8.6-19.9-16.2-4.5-7.7-5.7-16.8-6.2-25.5v-101.2h-19.2v101.9c0,8.2,1.1,16.5,3.6,24.3,3.3,10.1,9.4,19.5,18.2,25.7,10.5,7.3,23.4,10.4,36.1,10.6,1.4,0,2.8,0,4.2,0,1.4,0,2.8,0,4.2,0,12.6-.2,25.6-3.3,36.1-10.6,8.8-6.2,14.9-15.6,18.2-25.7,2.6-7.8,3.7-16.1,3.6-24.3v-101.9s-19.2,0-19.2,0Z"/>
</svg>